<svg width="69" height="69" viewBox="0 0 69 69" fill="none" xmlns="http://www.w3.org/2000/svg">
<path d="M37.3749 40.2501H25.3517C24.0744 40.2473 22.8101 40.5064 21.6369 41.0116C20.4638 41.5167 19.4067 42.2571 18.531 43.187C17.6553 44.1168 16.9796 45.2164 16.5457 46.4177C16.1118 47.6191 15.9289 48.8966 16.0083 50.1714C16.0877 51.4463 16.4277 52.6912 17.0072 53.8295C17.5868 54.9677 18.3937 55.975 19.378 56.789C20.3623 57.603 21.503 58.2066 22.7298 58.5623C23.9565 58.918 25.2432 59.0183 26.5103 58.8571L28.1117 58.6558C30.6679 58.3352 33.0193 57.0929 34.7248 55.1619C36.4302 53.231 37.3725 50.7441 37.3749 48.1678V21.2463C37.3749 16.5917 37.3749 14.2658 38.7377 12.6587C40.1004 11.0516 42.3947 10.6663 46.9832 9.8987L53.7624 8.76882C54.1534 8.70557 54.3489 8.67107 54.4524 8.78607C54.5559 8.90107 54.5099 9.09082 54.415 9.47607L51.8419 19.7714C51.7988 19.9439 51.7758 20.0302 51.7154 20.0877C51.655 20.1452 51.5717 20.1624 51.3963 20.1969L37.3749 23.0001" stroke="white" stroke-width="2"/>
</svg>
